Coordinates
nRows=227
nColumns=2
inDegrees=yes
endheader
time	ankle_angle_r	
2.22883	 -0.380078	
2.2621	 -0.364723	
2.29536	 -0.408817	
2.32863	 -0.366211	
2.3619	 -0.381470	
2.39516	 -0.423496	
2.42843	 -0.394757	
2.46169	 -0.423109	
2.49496	 -0.366211	
2.52823	 -0.396729	
2.56149	 -0.407270	
2.59476	 -0.396729	
2.62802	 -0.361107	
2.66129	 -0.421949	
2.69456	 -0.424501	
2.72782	 -0.363369	
2.76109	 -0.396729	
2.79435	 -0.421175	
2.82762	 -0.366211	
2.86089	 -0.415216	
2.89415	 -0.411987	
2.92742	 -0.339115	
2.96069	 -0.386172	
2.99395	 -0.377854	
3.02722	 -0.362499	
3.06048	 -0.404370	
3.09375	 -0.408082	
3.12702	 -0.427246	
3.16028	 -0.423147	
3.19355	 -0.427246	
3.22681	 -0.438213	
3.26008	 -0.438116	
3.29335	 -0.442505	
3.32661	 -0.396729	
3.35988	 -0.437826	
3.39315	 -0.452988	
3.42641	 -0.432760	
3.45968	 -0.457764	
3.49294	 -0.447571	
3.52621	 -0.396729	
3.55948	 -0.442505	
3.59274	 -0.452408	
3.62601	 -0.421794	
3.65927	 -0.453603	
3.69254	 -0.444184	
3.72581	 -0.427246	
3.75907	 -0.442505	
3.79234	 -0.448441	
3.8256	 -0.427246	
3.85887	 -0.442505	
3.89214	 -0.466796	
3.9254	 -0.411987	
3.95867	 -0.436086	
3.99194	 -0.440278	
4.0252	 -0.390116	
4.05847	 -0.427246	
4.09173	 -0.435699	
4.125	 -0.396729	
4.15827	 -0.443765	
4.19153	 -0.441438	
4.2248	 -0.381470	
4.25806	 -0.403338	
4.29133	 -0.434632	
4.3246	 -0.366211	
4.35786	 -0.411987	
4.39113	 -0.427246	
4.4244	 -0.358725	
4.45766	 -0.419857	
4.49093	 -0.419954	
4.52419	 -0.381470	
4.55746	 -0.366211	
4.59073	 -0.388472	
4.62399	 -0.366211	
4.65726	 -0.434055	
4.69052	 -0.446173	
4.72379	 -0.420630	
4.75706	 -0.427246	
4.79032	 -0.396729	
4.82359	 -0.396729	
4.85685	 -0.411987	
4.89012	 -0.436373	
4.92339	 -0.387505	
4.95665	 -0.442505	
4.98992	 -0.415562	
5.02319	 -0.411987	
5.05645	 -0.436856	
5.08972	 -0.400883	
5.12298	 -0.381470	
5.15625	 -0.427246	
5.18952	 -0.421984	
5.22278	 -0.396729	
5.25605	 -0.422177	
5.28931	 -0.361239	
5.32258	 -0.381470	
5.35585	 -0.411987	
5.38911	 -0.366211	
5.42238	 -0.392143	
5.45565	 -0.370699	
5.48891	 -0.350952	
5.52218	 -0.385765	
5.55544	 -0.366211	
5.58871	 -0.373266	
5.62198	 -0.362206	
5.65524	 -0.381470	
5.68851	 -0.354764	
5.72177	 -0.339408	
5.75504	 -0.393110	
5.78831	 -0.366211	
5.82157	 -0.328843	
5.85484	 -0.371485	
5.8881	 -0.350952	
5.92137	 -0.332558	
5.95464	 -0.381470	
5.9879	 -0.378528	
6.02117	 -0.396729	
6.05444	 -0.406491	
6.0877	 -0.376167	
6.12097	 -0.368766	
6.15423	 -0.399187	
6.1875	 -0.379108	
6.22077	 -0.353217	
6.25403	 -0.425078	
6.2873	 -0.396729	
6.32056	 -0.368186	
6.35383	 -0.411987	
6.3871	 -0.367992	
6.42036	 -0.367896	
6.45363	 -0.398317	
6.4869	 -0.381470	
6.52016	 -0.366211	
6.55343	 -0.414583	
6.58669	 -0.369815	
6.61996	 -0.380365	
6.65323	 -0.411987	
6.68649	 -0.366211	
6.71976	 -0.395914	
6.75302	 -0.411987	
6.78629	 -0.382091	
6.81956	 -0.395680	
6.85282	 -0.442505	
6.88609	 -0.396397	
6.91935	 -0.366680	
6.95262	 -0.396866	
6.98589	 -0.366293	
7.01915	 -0.381470	
7.05242	 -0.396729	
7.08569	 -0.396479	
7.11895	 -0.381124	
7.15222	 -0.397171	
7.18548	 -0.396729	
7.21875	 -0.366847	
7.25202	 -0.395996	
7.28528	 -0.367040	
7.31855	 -0.378692	
7.35181	 -0.396729	
7.38508	 -0.381470	
7.41835	 -0.381470	
7.45161	 -0.396729	
7.48488	 -0.380060	
7.51815	 -0.349446	
7.55141	 -0.439300	
7.58468	 -0.333994	
7.61794	 -0.350952	
7.65121	 -0.398621	
7.68448	 -0.364222	
7.71774	 -0.377298	
7.75101	 -0.366211	
7.78427	 -0.353232	
7.81754	 -0.348576	
7.85081	 -0.394256	
7.88407	 -0.335693	
7.91734	 -0.409321	
7.9506	 -0.439742	
7.98387	 -0.363351	
8.01714	 -0.384426	
8.0504	 -0.396729	
8.08367	 -0.345142	
8.11694	 -0.374977	
8.1502	 -0.374784	
8.18347	 -0.401668	
8.21673	 -0.343879	
8.25	 -0.393095	
8.28327	 -0.350952	
8.31653	 -0.400508	
8.3498	 -0.396729	
8.38306	 -0.346932	
8.41633	 -0.400845	
8.4496	 -0.392515	
8.48286	 -0.385780	
8.51613	 -0.446911	
8.5494	 -0.411987	
8.58266	 -0.401328	
8.61593	 -0.376773	
8.64919	 -0.366211	
8.68246	 -0.355842	
8.71573	 -0.376483	
8.74899	 -0.356035	
8.78226	 -0.376290	
8.81552	 -0.396729	
8.84879	 -0.411987	
8.88206	 -0.356422	
8.91532	 -0.392603	
8.94859	 -0.396729	
8.98185	 -0.411987	
9.01512	 -0.427246	
9.04839	 -0.415339	
9.08165	 -0.375420	
9.11492	 -0.402875	
9.14819	 -0.402972	
9.18145	 -0.357292	
9.21472	 -0.405550	
9.24798	 -0.427246	
9.28125	 -0.403359	
9.31452	 -0.398533	
9.34778	 -0.413599	
9.38105	 -0.344032	
9.41431	 -0.343935	
9.44758	 -0.343838	
9.48085	 -0.282707	
9.51411	 -0.328386	
9.54738	 -0.358807	
9.58065	 -0.312676	
9.61391	 -0.389131	
9.64718	 -0.381470	
9.68044	 -0.358420	
9.71371	 -0.396729	
9.74698	 -0.411987	
